<svg viewBox="0 0 1024 1024" xmlns="http://www.w3.org/2000/svg">
  <path
    d="M512 910.2336c219.9552 0 398.2336-178.2784 398.2336-398.2336S731.9552 113.7664 512 113.7664 113.7664 292.0448 113.7664 512 292.0448 910.2336 512 910.2336z m0 56.832c-251.392 0-455.0656-203.776-455.0656-455.0656S260.608 56.9344 512 56.9344s455.0656 203.776 455.0656 455.0656S763.392 967.0656 512 967.0656z"
    fill="currentColor"
  ></path>
  <path
    d="M483.1232 394.9568L372.8384 505.2416c-11.0592 11.0592-29.0816 11.0592-40.2432 0-11.0592-11.0592-11.0592-29.0816 0-40.2432l181.0432-181.0432 40.2432 40.2432 140.8 140.8c11.0592 11.0592 11.0592 29.0816 0 40.2432-11.0592 11.0592-29.0816 11.0592-40.2432 0L540.0576 390.9632V710.656c0 15.6672-12.6976 28.4672-28.4672 28.4672s-28.4672-12.6976-28.4672-28.4672V394.9568z"
    fill="currentColor"
  ></path>
</svg>
